<svg width="32" height="32" viewBox="0 0 32 32" fill="none" xmlns="http://www.w3.org/2000/svg">
  <rect width="32" height="32" rx="7" fill="url(#collier-gradient)" />
  <path
    d="M21.5 9.4c-1-1.2-2.6-1.9-4.5-1.9c-3.5 0-6.5 2.6-6.5 7.5s3 7.5 6.5 7.5c1.9 0 3.5-.7 4.5-1.9l-1.7-1.4c-.7.8-1.6 1.3-2.8 1.3c-2.3 0-4-1.7-4-5.5s1.7-5.5 4-5.5c1.2 0 2.1.5 2.8 1.3l1.7-1.4z"
    fill="#fff"
  />
  <circle cx="25" cy="7" r="2" fill="#fff" />
  <defs>
    <linearGradient id="collier-gradient" x1="0" y1="0" x2="32" y2="32" gradientUnits="userSpaceOnUse">
      <stop stop-color="#3B82F6" />
      <stop offset="1" stop-color="#1E40AF" />
    </linearGradient>
  </defs>
</svg>
